# Aspose.3D Wavefront OBJ Exporter
# Copyright 2004-2021 Aspose Pty Ltd.
# File created: 12/22/2021 09:45:39

mtllib material.lib

#
# object Apple
#

v -0.3485956694930792 1.93082784246693856 -30.81491621003423024
v -22.54108041524887088 2.10075624391059046 -21.48734961403121344
v -31.62633478641510008 2.23277523015041844 0.84719416630458128
v -22.31006771326065064 2.06535534202466309 22.93514426676362208
v -0.01910533756017685 1.6757838100088476 31.81065293666686592
v 22.209911048412323 1.4769739717032284 22.44480973261059728
v 31.34547173976898192 1.61639756008861912 0.36858703683680472
v 21.98813855648040768 1.82013158493983488 -21.67703538984485688
v -0.72896135970950128 16.10033123968477042 -42.11682939576729012
v -30.8368712663650512 16.44979832997288224 -29.36376601237966
v -43.09111237525939942 16.71393828591974536 1.03665317981637805
v -30.36009371280670168 16.35581460839335576 30.92937203012419904
v -0.04598377272486687 15.55975478138950408 42.75858148751671456
v 30.14087080955505372 15.14159034428785588 29.92279282883754384
v 42.49317646026611328 15.42743147151529112 0.04492881820180321
v 29.6832352876663208 15.85412434580075392 -29.76548333972475296
v -1.51638584211468696 45.74956970971639696 -50.14826804696596696
v -37.15461790561676026 46.44850223554304592 -34.7989217615290656
v -51.50967240333557128 46.900350078296384 1.36798340408048768
v -36.20595335960388184 46.15625440874730856 36.5728124283885592
v -0.12828218750655652 44.66860217291180392 50.14825331597595692
v 35.67030727863311768 43.81577340800260608 34.63622213816199032
v 50.1792609691619873 44.30795301650229588 -0.63083614315892656
v 34.74628925323486336 45.15140965000301066 -35.70608636229389528
v -1.97279136627912528 73.56945180555904072 -42.45937473127068528
v -32.09698796272277832 74.3997883810626632 -29.25950904852582824
v -44.1264033317565918 74.80217836744904496 1.36872186744568872
v -30.98878264427185056 73.91794232422931536 30.96894013619409232
v -0.32372181303799152 72.33871908932535176 42.19170226291291216
v 29.97505068778991696 71.34802215146386572 28.83191734436169184
v 42.12407171726226806 71.77503688793525776 -0.99626943091674064
v 28.86953055858612064 72.72244791052278864 -30.4960071311178744
v -1.90584491938352592 79.20384629362612828 -22.93922403408698336
v -18.20868700742721556 79.7785137331920992 -15.70936847108825592
v -24.64405894279479984 79.91094005698103328 0.76792251393187232
v -17.45023429393768312 79.32860526771659692 16.66640240947780424
v -0.8107014931738376 78.38179242231051088 22.65942011801641696
v 15.55211097002029416 77.77045023733934672 15.38368388567690736
v 22.03225642442703247 77.89620743549249936 -0.8319275702847224
v 14.7888898849487304 78.50324239570529984 -16.692637775973548
v -1.29585685208439828 68.29103825941041352 -0.0942513779509339
v -0.40288404561579224 7.97531909751832128 0.42730928849389024
v -2.80659049749374384 64.97350344659182048 0.5854346173597276
v 0.51384437829256056 64.97350344659182048 0.5854346173597276
v -2.80659049749374384 64.97350290562431504 -2.73500025842653296
v 0.51384437829256056 64.97350290562431504 -2.73500025842653296
v -1.80397387593984608 81.8021125763166736 4.37160962258292152
v 5.40730282664299008 80.78698587114701008 4.37160978796805464
v -1.80397387593984608 81.80211138986697968 -2.91076666678465744
v 5.40730282664299008 80.78698468469731616 -2.9107665013995248
v 1.39109380543231968 95.18376110073667464 7.19973533326095884
v 13.6796623468399048 91.13416193005191702 7.19973599302440804
v 1.39109380543231968 95.18375899276618668 -5.73889524764097024
v 13.6796623468399048 91.13415982208142906 -5.73889458787752112
# 54 vertices

vn 0.73612564802169792 -0.59539025306159 -0.32191526130359716
vn 0.73612564802169792 -0.59539025306159 -0.32191526130359716
vn 0.73612564802169792 -0.59539025306159 -0.32191526130359716
vn 0.73612564802169792 -0.59539025306159 -0.32191526130359716
vn 0.30947351455688476 -0.5884168719181532 0.74698845197872016
vn 0.30947351455688476 -0.5884168719181532 0.74698845197872016
vn 0.30947351455688476 -0.5884168719181532 0.74698845197872016
vn 0.30947351455688476 -0.5884168719181532 0.74698845197872016
vn -0.7437609434127808 -0.59249235118060016 0.30947140571428844
vn -0.7437609434127808 -0.59249235118060016 0.30947140571428844
vn -0.7437609434127808 -0.59249235118060016 0.30947140571428844
vn -0.7437609434127808 -0.59249235118060016 0.30947140571428844
vn -0.31795161962509156 -0.59378868462568816 -0.73913582426098816
vn -0.31795161962509156 -0.59378868462568816 -0.73913582426098816
vn -0.31795161962509156 -0.59378868462568816 -0.73913582426098816
vn -0.31795161962509156 -0.59378868462568816 -0.73913582426098816
vn 0.30061280727386476 -0.59204739593466728 -0.7477378476693752
vn 0.30061280727386476 -0.59204739593466728 -0.7477378476693752
vn 0.30061280727386476 -0.59204739593466728 -0.7477378476693752
vn 0.30061280727386476 -0.59204739593466728 -0.7477378476693752
vn 0.7440590858459472 -0.5955248577694288 0.30286333726532268
vn 0.7440590858459472 -0.5955248577694288 0.30286333726532268
vn 0.7440590858459472 -0.5955248577694288 0.30286333726532268
vn 0.7440590858459472 -0.5955248577694288 0.30286333726532268
vn -0.30717226862907408 -0.59004616493773136 0.74665305690801456
vn -0.30717226862907408 -0.59004616493773136 0.74665305690801456
vn -0.30717226862907408 -0.59004616493773136 0.74665305690801456
vn -0.30717226862907408 -0.59004616493773136 0.74665305690801456
vn -0.74831622838974 -0.59245615098018624 -0.29835968498032272
vn -0.74831622838974 -0.59245615098018624 -0.29835968498032272
vn -0.74831622838974 -0.59245615098018624 -0.29835968498032272
vn -0.74831622838974 -0.59245615098018624 -0.29835968498032272
vn 0.35937392711639404 -0.23983140081605692 -0.90184887316559184
vn 0.35937392711639404 -0.23983140081605692 -0.90184887316559184
vn 0.35937392711639404 -0.23983140081605692 -0.90184887316559184
vn 0.35937392711639404 -0.23983140081605692 -0.90184887316559184
vn 0.90012884140014656 -0.23252733010673292 0.36837364051222336
vn 0.90012884140014656 -0.23252733010673292 0.36837364051222336
vn 0.90012884140014656 -0.23252733010673292 0.36837364051222336
vn 0.90012884140014656 -0.23252733010673292 0.36837364051222336
vn -0.35436129570007324 -0.2358551637323336 0.90487585334039872
vn -0.35436129570007324 -0.2358551637323336 0.90487585334039872
vn -0.35436129570007324 -0.2358551637323336 0.90487585334039872
vn -0.35436129570007324 -0.2358551637323336 0.90487585334039872
vn -0.89985668659210208 -0.25060471748304404 -0.35700880378534284
vn -0.89985668659210208 -0.25060471748304404 -0.35700880378534284
vn -0.89985668659210208 -0.25060471748304404 -0.35700880378534284
vn -0.89985668659210208 -0.25060471748304404 -0.35700880378534284
vn 0.888557493686676 -0.2392372679689364 -0.39144732630727296
vn 0.888557493686676 -0.2392372679689364 -0.39144732630727296
vn 0.888557493686676 -0.2392372679689364 -0.39144732630727296
vn 0.888557493686676 -0.2392372679689364 -0.39144732630727296
vn 0.38106694817543032 -0.22381611454787288 0.89704749654347824
vn 0.38106694817543032 -0.22381611454787288 0.89704749654347824
vn 0.38106694817543032 -0.22381611454787288 0.89704749654347824
vn 0.38106694817543032 -0.22381611454787288 0.89704749654347824
vn -0.89089852571487424 -0.24964217620144892 0.37944508685832504
vn -0.89089852571487424 -0.24964217620144892 0.37944508685832504
vn -0.89089852571487424 -0.24964217620144892 0.37944508685832504
vn -0.89089852571487424 -0.24964217620144892 0.37944508685832504
vn -0.3842202425003052 -0.2466311414145468 -0.8896897629421728
vn -0.3842202425003052 -0.2466311414145468 -0.8896897629421728
vn -0.3842202425003052 -0.2466311414145468 -0.8896897629421728
vn -0.3842202425003052 -0.2466311414145468 -0.8896897629421728
vn 0.39245730638504032 0.26168441236973816 0.88175876645586992
vn 0.39245730638504032 0.26168441236973816 0.88175876645586992
vn 0.39245730638504032 0.26168441236973816 0.88175876645586992
vn 0.39245730638504032 0.26168441236973816 0.88175876645586992
vn -0.88658666610717776 0.2404702651540316 0.3951430525010456
vn -0.88658666610717776 0.2404702651540316 0.3951430525010456
vn -0.88658666610717776 0.2404702651540316 0.3951430525010456
vn -0.88658666610717776 0.2404702651540316 0.3951430525010456
vn -0.3815219700336456 0.24301182104782616 -0.89184425260054352
vn -0.3815219700336456 0.24301182104782616 -0.89184425260054352
vn -0.3815219700336456 0.24301182104782616 -0.89184425260054352
vn -0.3815219700336456 0.24301182104782616 -0.89184425260054352
vn 0.3591647446155548 0.25042811289928912 -0.89904747512991664
vn 0.3591647446155548 0.25042811289928912 -0.89904747512991664
vn 0.3591647446155548 0.25042811289928912 -0.89904747512991664
vn 0.3591647446155548 0.25042811289928912 -0.89904747512991664
vn 0.89121758937835696 0.26417493866677532 0.36870403754210944
vn 0.89121758937835696 0.26417493866677532 0.36870403754210944
vn 0.89121758937835696 0.26417493866677532 0.36870403754210944
vn 0.89121758937835696 0.26417493866677532 0.36870403754210944
vn -0.32679584622383116 0.25240844425243036 0.91076590478886432
vn -0.32679584622383116 0.25240844425243036 0.91076590478886432
vn -0.32679584622383116 0.25240844425243036 0.91076590478886432
vn -0.32679584622383116 0.25240844425243036 0.91076590478886432
vn -0.90259861946105952 0.23671287400706544 -0.35955906790617108
vn -0.90259861946105952 0.23671287400706544 -0.35955906790617108
vn -0.90259861946105952 0.23671287400706544 -0.35955906790617108
vn -0.90259861946105952 0.23671287400706544 -0.35955906790617108
vn 0.88553553819656368 0.25815632607141776 -0.38624082241255528
vn 0.88553553819656368 0.25815632607141776 -0.38624082241255528
vn 0.88553553819656368 0.25815632607141776 -0.38624082241255528
vn 0.88553553819656368 0.25815632607141776 -0.38624082241255528
vn 0.29100999236106872 0.95159505186598448 -0.09889434135243436
vn 0.29100999236106872 0.95159505186598448 -0.09889434135243436
vn 0.29100999236106872 0.95159505186598448 -0.09889434135243436
vn 0.29100999236106872 0.95159505186598448 -0.09889434135243436
vn 0.15870337188243866 0.94515083911055392 0.28548749784033812
vn 0.15870337188243866 0.94515083911055392 0.28548749784033812
vn 0.15870337188243866 0.94515083911055392 0.28548749784033812
vn 0.15870337188243866 0.94515083911055392 0.28548749784033812
vn -0.2428710013628006 0.95997973568603376 0.13947226858342932
vn -0.2428710013628006 0.95997973568603376 0.13947226858342932
vn -0.2428710013628006 0.95997973568603376 0.13947226858342932
vn -0.2428710013628006 0.95997973568603376 0.13947226858342932
vn -0.09373298287391662 0.95578099716308192 -0.27874157503183116
vn -0.09373298287391662 0.95578099716308192 -0.27874157503183116
vn -0.09373298287391662 0.95578099716308192 -0.27874157503183116
vn -0.09373298287391662 0.95578099716308192 -0.27874157503183116
vn 0.13448363542556762 0.953410462253064 -0.27004197871742976
vn 0.13448363542556762 0.953410462253064 -0.27004197871742976
vn 0.13448363542556762 0.953410462253064 -0.27004197871742976
vn 0.13448363542556762 0.953410462253064 -0.27004197871742976
vn 0.2939728796482086 0.94688942171208672 0.13030817579118536
vn 0.2939728796482086 0.94688942171208672 0.13030817579118536
vn 0.2939728796482086 0.94688942171208672 0.13030817579118536
vn 0.2939728796482086 0.94688942171208672 0.13030817579118536
vn -0.05828118324279785 0.95220219013786832 0.29985704405862336
vn -0.05828118324279785 0.95220219013786832 0.29985704405862336
vn -0.05828118324279785 0.95220219013786832 0.29985704405862336
vn -0.05828118324279785 0.95220219013786832 0.29985704405862336
vn -0.25809070467948912 0.95959941707204448 -0.11206315445460668
vn -0.25809070467948912 0.95959941707204448 -0.11206315445460668
vn -0.25809070467948912 0.95959941707204448 -0.11206315445460668
vn -0.25809070467948912 0.95959941707204448 -0.11206315445460668
vn -0.38062474131584168 0.91328690073480272 -0.14502389707194196
vn -0.38062474131584168 0.91328690073480272 -0.14502389707194196
vn -0.38062474131584168 0.91328690073480272 -0.14502389707194196
vn 0.19537666440010072 0.89497148416900256 -0.40106612123699504
vn 0.19537666440010072 0.89497148416900256 -0.40106612123699504
vn 0.19537666440010072 0.89497148416900256 -0.40106612123699504
vn 0.44425517320632936 0.88030519812831536 0.16643329523879568
vn 0.44425517320632936 0.88030519812831536 0.16643329523879568
vn 0.44425517320632936 0.88030519812831536 0.16643329523879568
vn -0.3673609495162964 0.90776375255201552 0.20251135639900352
vn -0.3673609495162964 0.90776375255201552 0.20251135639900352
vn -0.3673609495162964 0.90776375255201552 0.20251135639900352
vn -0.14341923594474792 0.90581851663237328 -0.3986526117279556
vn -0.14341923594474792 0.90581851663237328 -0.3986526117279556
vn -0.14341923594474792 0.90581851663237328 -0.3986526117279556
vn 0.43463277816772464 0.88550708002447184 -0.16423050584826582
vn 0.43463277816772464 0.88550708002447184 -0.16423050584826582
vn 0.43463277816772464 0.88550708002447184 -0.16423050584826582
vn 0.21570669114589692 0.88331974372888288 0.41619319233735056
vn 0.21570669114589692 0.88331974372888288 0.41619319233735056
vn 0.21570669114589692 0.88331974372888288 0.41619319233735056
vn -0.12352430820465088 0.8941373334221104 0.43041843509703648
vn -0.12352430820465088 0.8941373334221104 0.43041843509703648
vn -0.12352430820465088 0.8941373334221104 0.43041843509703648
vn -0.19572015106678008 -0.97786097512425792 0.07403717475185512
vn -0.19572015106678008 -0.97786097512425792 0.07403717475185512
vn -0.19572015106678008 -0.97786097512425792 0.07403717475185512
vn -0.09086117893457412 -0.9766012747757336 -0.19492072347412392
vn -0.09086117893457412 -0.9766012747757336 -0.19492072347412392
vn -0.09086117893457412 -0.9766012747757336 -0.19492072347412392
vn 0.17917980253696442 -0.98030854623808656 -0.0830049929301937
vn 0.17917980253696442 -0.98030854623808656 -0.0830049929301937
vn 0.17917980253696442 -0.98030854623808656 -0.0830049929301937
vn 0.0721810981631279 -0.9792095113888104 0.18957493761346788
vn 0.0721810981631279 -0.9792095113888104 0.18957493761346788
vn 0.0721810981631279 -0.9792095113888104 0.18957493761346788
vn -0.08223734050989151 -0.97849497097348768 0.18916832951155784
vn -0.08223734050989151 -0.97849497097348768 0.18916832951155784
vn -0.08223734050989151 -0.97849497097348768 0.18916832951155784
vn -0.1957978904247284 -0.97676016320774272 -0.08719368756814749
vn -0.1957978904247284 -0.97676016320774272 -0.08719368756814749
vn -0.1957978904247284 -0.97676016320774272 -0.08719368756814749
vn 0.06139981746673584 -0.97844812505783984 -0.19715334925374684
vn 0.06139981746673584 -0.97844812505783984 -0.19715334925374684
vn 0.06139981746673584 -0.97844812505783984 -0.19715334925374684
vn 0.18134520947933196 -0.98019580736935744 0.07956159438035182
vn 0.18134520947933196 -0.98019580736935744 0.07956159438035182
vn 0.18134520947933196 -0.98019580736935744 0.07956159438035182
vn 0 0.99999999999998656 -1.6292067939183141E-07
vn 0 0.99999999999998656 -1.6292067939183141E-07
vn 0 0.99999999999998656 -1.6292067939183141E-07
vn 0 0.99999999999998656 -1.6292067939183141E-07
vn -0.78106677532196048 0.62444746494292368 -1.0173540521130064E-07
vn -0.78106677532196048 0.62444746494292368 -1.0173540521130064E-07
vn -0.78106677532196048 0.62444746494292368 -1.0173540521130064E-07
vn -0.78106677532196048 0.62444746494292368 -1.0173540521130064E-07
vn -0.95530617237091072 0.295618087053295 -4.8162299592924285E-08
vn -0.95530617237091072 0.295618087053295 -4.8162299592924285E-08
vn -0.95530617237091072 0.295618087053295 -4.8162299592924285E-08
vn -0.95530617237091072 0.295618087053295 -4.8162299592924285E-08
vn 0.99822998046875008 -0.05947267636656681 9.689328832329647E-09
vn 0.99822998046875008 -0.05947267636656681 9.689328832329647E-09
vn 0.99822998046875008 -0.05947267636656681 9.689328832329647E-09
vn 0.99822998046875008 -0.05947267636656681 9.689328832329647E-09
vn 0.0010201804107055 0.0105844334930667 0.99994343346769824
vn 0.0010201804107055 0.0105844334930667 0.99994343346769824
vn 0.0010201804107055 0.0105844334930667 0.99994343346769824
vn 0.0010201804107055 0.0105844334930667 0.99994343346769824
vn 0.02142246067523956 0.22225484762506688 -0.97475329682241136
vn 0.02142246067523956 0.22225484762506688 -0.97475329682241136
vn 0.02142246067523956 0.22225484762506688 -0.97475329682241136
vn 0.02142246067523956 0.22225484762506688 -0.97475329682241136
vn -0.31298521161079408 -0.94975799322127024 1.5473521741693474E-07
vn -0.31298521161079408 -0.94975799322127024 1.5473521741693474E-07
vn -0.31298521161079408 -0.94975799322127024 1.5473521741693474E-07
vn -0.31298521161079408 -0.94975799322127024 1.5473521741693474E-07
vn 0.97265923023223872 -0.23223681747913048 3.7836180050154766E-08
vn 0.97265923023223872 -0.23223681747913048 3.7836180050154766E-08
vn 0.97265923023223872 -0.23223681747913048 3.7836180050154766E-08
vn 0.97265923023223872 -0.23223681747913048 3.7836180050154766E-08
vn 0.05373643338680267 0.20689205349558448 0.97688683476988656
vn 0.05373643338680267 0.20689205349558448 0.97688683476988656
vn 0.05373643338680267 0.20689205349558448 0.97688683476988656
vn 0.05373643338680267 0.20689205349558448 0.97688683476988656
vn 0.05373643338680267 0.20689189909821328 -0.97688690218384928
vn 0.05373643338680267 0.20689189909821328 -0.97688690218384928
vn 0.05373643338680267 0.20689189909821328 -0.97688690218384928
vn 0.05373643338680267 0.20689189909821328 -0.97688690218384928
# 216 vertex normals

vt 0.65419012308120728 0.1486402153968811 0
vt 0.71805411577224728 0.06497975438833237 0
vt 0.67088276147842408 0.29570478200912476 0
vt 0.68625444173812864 0.0527227446436882 0
vt 0.7024633288383484 0.13639235496520996 0
vt 0.6768004298210144 0.24694567918777464 0
vt 0.65433835983276368 0.19715636968612672 0
vt 0.68147844076156616 0.06729437410831451 0
vt 0.665692925453186 0.06497975438833237 0
vt 0.68576347827911376 0.21557611227035524 0
vt 0.67558306455612184 0.2125273048877716 0
vt 0.71066457033157352 0.132582426071167 0
vt 0.51639348268508912 0.69678747653961184 0
vt 0.51342737674713136 0.99362868070602416 0
vt 0.66581690311431888 0.30297058820724488 0
vt 0.65830338001251224 0.132582426071167 0
vt 0.61547887325286864 0.69777756929397584 0
vt 0.65975451469421384 0.17541468143463134 0
vt 0.69880759716033936 0.1030239388346672 0
vt 0.70701330900192264 0.27461877465248108 0
vt 0.69070237874984744 0.26180392503738404 0
vt 0.61251276731491088 0.99461877346038816 0
vt 0.65465211868286136 0.27461877465248108 0
vt 0.70655131340026856 0.1486402153968811 0
vt 0.6622034311294556 0.24908483028411864 0
vt 0.68060648441314696 0.19537413120269776 0
vt 0.66798502206802368 0.19403955340385436 0
vt 0.71438491344451904 0.0979468822479248 0
vt 0.51342737674713136 0.99362868070602416 0
vt 0.69659489393234256 0.13507157564163208 0
vt 0.67356413602828976 0.27088189125061036 0
vt 0.66202372312545776 0.0979468822479248 0
vt 0.67982548475265504 0.24862605333328248 0
vt 0.67091327905654904 0.2567477524280548 0
vt 0.61547887325286864 0.69777756929397584 0
vt 0.67049771547317504 0.08403579145669937 0
vt 0.51639348268508912 0.69678747653961184 0
vt 0.70669955015182496 0.19715636968612672 0
vt 0.69370365142822264 0.20078396797180176 0
vt 0.69625145196914672 0.30720034241676332 0
vt 0.6804044842720032 0.2376500964164734 0
vt 0.7061767578125 0.11411270499229432 0
vt 0.6878836750984192 0.14573267102241516 0
vt 0.69533431529998776 0.0683719590306282 0
vt 0.6874902248382568 0.27336639165878296 0
vt 0.61251276731491088 0.99461877346038816 0
vt 0.70783889293670656 0.3242579400539398 0
vt 0.691290020942688 0.08822640776634216 0
vt 0.69946634769439696 0.25459566712379456 0
vt 0.68409419059753416 0.24850982427597044 0
vt 0.66469365358352664 0.12859097123146058 0
vt 0.65547770261764528 0.3242579400539398 0
vt 0.51342737674713136 0.99362868070602416 0
vt 0.69018602371215824 0.29766443371772768 0
vt 0.51639348268508912 0.69678747653961184 0
vt 0.61547887325286864 0.69777756929397584 0
vt 0.67380988597869872 0.14159771800041198 0
vt 0.67224192619323728 0.30691972374916076 0
vt 0.68083721399307248 0.12151611596345902 0
vt 0.7013510465621948 0.18043616414070128 0
vt 0.61251276731491088 0.99461877346038816 0
# 61 texture coords

g Apple
usemtl Principal
s 1
f 8/24/1 16/38/2 15/60/3 7/5/4
f 6/19/5 14/30/6 13/48/7 5/44/8
f 4/4/9 12/8/10 11/36/11 3/9/12
f 2/32/13 10/51/14 9/18/15 1/16/16
f 1/16/17 9/18/18 16/7/19 8/1/20
f 7/5/21 15/60/22 14/30/23 6/19/24
f 5/44/25 13/48/26 12/8/27 4/4/28
f 3/9/29 11/36/30 10/51/31 2/32/32
f 9/18/33 17/25/34 24/23/35 16/7/36
f 15/60/37 23/49/38 22/39/39 14/30/40
f 13/48/41 21/43/42 20/59/43 12/8/44
f 11/36/45 19/57/46 18/27/47 10/51/48
f 16/38/49 24/20/50 23/49/51 15/60/52
f 14/30/53 22/39/54 21/43/55 13/48/56
f 12/8/57 20/59/58 19/57/59 11/36/60
f 10/51/61 18/27/62 17/25/63 9/18/64
f 22/39/65 30/21/66 29/10/67 21/43/68
f 20/59/69 28/26/70 27/11/71 19/57/72
f 18/27/73 26/34/74 25/15/75 17/25/76
f 17/25/77 25/15/78 32/52/79 24/23/80
f 23/49/81 31/40/82 30/21/83 22/39/84
f 21/43/85 29/10/86 28/26/87 20/59/88
f 19/57/89 27/11/90 26/34/91 18/27/92
f 24/20/93 32/47/94 31/40/95 23/49/96
f 32/47/97 40/58/98 39/54/99 31/40/100
f 30/21/101 38/45/102 37/50/103 29/10/104
f 28/26/105 36/41/106 35/6/107 27/11/108
f 26/34/109 34/31/110 33/3/111 25/15/112
f 25/15/113 33/3/114 40/58/115 32/52/116
f 31/40/117 39/54/118 38/45/119 30/21/120
f 29/10/121 37/50/122 36/41/123 28/26/124
f 27/11/125 35/6/126 34/31/127 26/34/128
f 39/54/129 41/33/130 38/45/131
f 37/50/132 41/33/133 36/41/134
f 35/6/135 41/33/136 34/31/137
f 40/58/138 41/33/139 39/54/140
f 38/45/141 41/33/142 37/50/143
f 36/41/144 41/33/145 35/6/146
f 34/31/147 41/33/148 33/3/149
f 33/3/150 41/33/151 40/58/152
f 7/5/153 42/42/154 8/24/155
f 5/44/156 42/42/157 6/19/158
f 3/2/159 42/42/160 4/4/161
f 1/12/162 42/42/163 2/28/164
f 8/24/165 42/42/166 1/12/167
f 6/19/168 42/42/169 7/5/170
f 4/4/171 42/42/172 5/44/173
f 2/28/174 42/42/175 3/2/176
f 43/35/177 44/22/178 46/29/179 45/13/180
f 48/61/181 52/46/182 54/53/183 50/14/184
f 44/22/185 48/61/186 50/14/187 46/29/188
f 45/13/189 49/55/190 47/17/191 43/35/192
f 46/29/193 50/14/194 49/55/195 45/13/196
f 43/35/197 47/17/198 48/61/199 44/22/200
f 51/56/201 53/37/202 54/53/203 52/46/204
f 49/55/205 53/37/206 51/56/207 47/17/208
f 50/14/209 54/53/210 53/37/211 49/55/212
f 47/17/213 51/56/214 52/46/215 48/61/216
#58 polygons

