# Aspose.3D Wavefront OBJ Exporter
# Copyright 2004-2021 Aspose Pty Ltd.
# File created: 12/23/2021 14:52:32

mtllib material.lib

#
# object square tree.001
#

v 7.45189021398608096 3.01665449659586748 86.09458061574105158
v 6.27580226872289336 3.86390847134509392 84.87491012611114624
v 8.09310333990801212 3.44916824251097328 84.48400064110676056
v 9.11644039357280712 4.27404943276487348 86.09458041088544178
v 8.0931033315862404 3.54435821947582496 87.70516032217737744
v 5.77313816498752704 4.03014069547107123 87.31425069045916132
v 7.03550999676219657 7.51139996770697136 84.72065056541343616
v 8.81994110763530688 7.38578692966173024 85.56615141271406344
v 8.55592077290046584 7.51140045383696456 86.88864703157322816
v 7.05138366734016486 7.51140035733871336 87.1036753771580976
v 6.14604537998667056 7.51140007529358832 85.85829673388380464
v 7.45188978845071224 7.88421154539339232 86.09457982271534604
# 12 vertices

vn -0.2794883364052868 -0.8935966116189888 -0.35124266490238852
vn -0.2794883364052868 -0.8935966116189888 -0.35124266490238852
vn -0.2794883364052868 -0.8935966116189888 -0.35124266490238852
vn -0.5452018840987576 -0.83647584622681568 -0.05534454218234675
vn -0.5452018840987576 -0.83647584622681568 -0.05534454218234675
vn -0.5452018840987576 -0.83647584622681568 -0.05534454218234675
vn 0.60255331813958768 -0.797665419937904 0.02568264821489197
vn 0.60255331813958768 -0.797665419937904 0.02568264821489197
vn 0.60255331813958768 -0.797665419937904 0.02568264821489197
vn 0.60261328041916192 -0.79774469479754448 0.02146384078383123
vn 0.60261328041916192 -0.79774469479754448 0.02146384078383123
vn 0.60261328041916192 -0.79774469479754448 0.02146384078383123
vn -0.2512291193501156 -0.88577331911375696 0.39024281031688112
vn -0.2512291193501156 -0.88577331911375696 0.39024281031688112
vn -0.2512291193501156 -0.88577331911375696 0.39024281031688112
vn -0.97895771439245952 0.01992794738958703 -0.20308751192512768
vn -0.97895771439245952 0.01992794738958703 -0.20308751192512768
vn -0.97895771439245952 0.01992794738958703 -0.20308751192512768
vn -0.20978255590420676 0.00234329608846584 -0.97774523534806544
vn -0.20978255590420676 0.00234329608846584 -0.97774523534806544
vn -0.20978255590420676 0.00234329608846584 -0.97774523534806544
vn 0.8462643035892128 -0.00982179934583771 -0.53267270166596456
vn 0.8462643035892128 -0.00982179934583771 -0.53267270166596456
vn 0.8462643035892128 -0.00982179934583771 -0.53267270166596456
vn 0.84126782302837408 0.01309272787963777 0.54045998836834688
vn 0.84126782302837408 0.01309272787963777 0.54045998836834688
vn 0.84126782302837408 0.01309272787963777 0.54045998836834688
vn -0.14231794559353856 0.11174597468951696 0.98349295226089456
vn -0.14231794559353856 0.11174597468951696 0.98349295226089456
vn -0.14231794559353856 0.11174597468951696 0.98349295226089456
vn -0.780396771464088 0.13673832640801764 -0.61015035949675856
vn -0.780396771464088 0.13673832640801764 -0.61015035949675856
vn -0.780396771464088 0.13673832640801764 -0.61015035949675856
vn 0.43179293032495984 0.16408498341094236 -0.88692220738546128
vn 0.43179293032495984 0.16408498341094236 -0.88692220738546128
vn 0.43179293032495984 0.16408498341094236 -0.88692220738546128
vn 0.97527657855386128 0.12399237933445592 0.18292509979516448
vn 0.97527657855386128 0.12399237933445592 0.18292509979516448
vn 0.97527657855386128 0.12399237933445592 0.18292509979516448
vn 0.13906532407125782 0.1840488978388628 0.97302964311416112
vn 0.13906532407125782 0.1840488978388628 0.97302964311416112
vn 0.13906532407125782 0.1840488978388628 0.97302964311416112
vn -0.76752647536095712 0.31556963320747856 0.55795962437605672
vn -0.76752647536095712 0.31556963320747856 0.55795962437605672
vn -0.76752647536095712 0.31556963320747856 0.55795962437605672
vn -0.23838555204563984 0.95311827307413216 -0.18638113768166952
vn -0.23838555204563984 0.95311827307413216 -0.18638113768166952
vn -0.23838555204563984 0.95311827307413216 -0.18638113768166952
vn 0.21471294131707132 0.92419591257550864 -0.31584829247927316
vn 0.21471294131707132 0.92419591257550864 -0.31584829247927316
vn 0.21471294131707132 0.92419591257550864 -0.31584829247927316
vn 0.33447528589764232 0.94213082960247056 -0.02271163166632339
vn 0.33447528589764232 0.94213082960247056 -0.02271163166632339
vn 0.33447528589764232 0.94213082960247056 -0.02271163166632339
vn 0.05205127663349714 0.9298656625645592 0.36419862260500976
vn 0.05205127663349714 0.9298656625645592 0.36419862260500976
vn 0.05205127663349714 0.9298656625645592 0.36419862260500976
vn -0.30454476826060016 0.92641163816817824 0.22139097558186604
vn -0.30454476826060016 0.92641163816817824 0.22139097558186604
vn -0.30454476826060016 0.92641163816817824 0.22139097558186604
# 60 vertex normals

vt 0.90908998250961296 0.1574610024690628 0
vt 0 0.1574610024690628 0
vt 0.45454499125480648 0.31492099165916444 0
vt 0.54545402526855472 0.1574610024690628 0
vt 0.72727197408676144 0.1574610024690628 0
vt 0.27272701263427736 0.31492099165916444 0
vt 0.36363598704338072 0.1574610024690628 0
vt 0.8181809782981872 0 0
vt 0.63636302947998048 0 0
vt 0.09090899676084518 0 0
vt 0.27272701263427736 0 0
vt 0.45454499125480648 0 0
vt 0.72727197408676144 0.4723820090293884 0
vt 0.90908998250961296 0.4723820090293884 0
vt 0.18181799352169036 0.4723820090293884 0
vt 0.36363598704338072 0.4723820090293884 0
vt 0.54545402526855472 0.4723820090293884 0
vt 0.09090899676084518 0.31492099165916444 0
vt 0.18181799352169036 0.1574610024690628 0
vt 0.63636302947998048 0.31492099165916444 0
vt 0.8181809782981872 0.31492099165916444 0
vt 1 0.31492099165916444 0
# 22 texture coords

g square tree.001
usemtl sheet dark
s 1
f 1/8/1 2/5/2 3/1/3
f 2/5/4 1/9/5 6/4/6
f 1/10/7 3/2/8 4/19/9
f 1/11/10 4/19/11 5/7/12
f 1/12/13 5/7/14 6/4/15
f 2/5/16 6/4/17 11/20/18
f 3/1/19 2/5/20 7/21/21
f 4/19/22 3/2/23 8/18/24
f 5/7/25 4/19/26 9/6/27
f 6/4/28 5/7/29 10/3/30
f 2/5/31 11/20/32 7/21/33
f 3/1/34 7/21/35 8/22/36
f 4/19/37 8/18/38 9/6/39
f 5/7/40 9/6/41 10/3/42
f 6/4/43 10/3/44 11/20/45
f 7/21/46 11/20/47 12/13/48
f 8/22/49 7/21/50 12/14/51
f 9/6/52 8/18/53 12/15/54
f 10/3/55 9/6/56 12/16/57
f 11/20/58 10/3/59 12/17/60
#20 polygons


#
# object standard tree trunk.001
#

v 7.45189015591517112 0.75504731920623776 86.82450380837495632
v 7.57624610930103072 6.43935372409391336 86.15960240058298326
v 6.81975975079161328 0.7550472044840144 86.45954322731073208
v 7.45775828321817432 6.43935372598465248 86.23478790811891768
v 6.81975981039626864 0.75504708556475328 85.72962197577533056
v 7.33340183317083216 6.43935370451984304 86.16976716808672166
v 7.45189021972693496 0.75504708136772016 85.364661364908784
v 7.32753320454973256 6.43935368116430152 86.02956096522207474
v 8.08402051968199942 0.7550471960899536 85.72962206518229776
v 7.44602103296089536 6.43935367927356776 85.95437548748846272
v 8.08402051968199054 0.75504731500919104 86.45954313790376488
v 7.57037745832818928 6.43935370073836744 86.01939618281717514
v 7.47261615202414208 1.70243177962550016 86.71368693687860232
v 7.4933421390091652 2.64981624004475688 86.60287003557994016
v 7.40991757741687704 3.59720072392240152 86.69192658169947664
v 7.48682094955327936 4.54458526161947776 86.2935915218457552
v 7.55552011486539856 5.4919695895545608 86.07555169095020631
v 7.351425198283291 5.49196957200980408 86.0773794990472112
v 7.21270834499485592 4.54458474160637672 86.17566753195383456
v 7.08439870110273873 3.59720041853096632 86.45552263959136496
v 7.03242591786736781 2.64981601518190544 86.38462479751423472
v 6.92609286413181648 1.70243156512947632 86.4220839975113364
v 7.24779483434210192 5.49196953430258624 85.90154201020222048
v 7.1777772515404994 4.54458469027098208 85.87931705282785792
v 7.12637107005835712 3.59720035701419104 86.05541311009612571
v 6.9909738080536848 2.64981592874745744 85.8763370249779712
v 6.90536683902730256 1.70243146245262312 85.80297949292607024
v 7.34825937208185744 5.49196951414012528 85.7238767169855152
v 7.4169587216664148 4.54458468211153384 85.70089060829737096
v 7.49386225572348864 3.59720036247025912 85.89170747800555712
v 7.41043787840361912 2.64981591816425512 85.58629455011205776
v 7.43116404966106096 1.70243145506250904 85.47547798731275744
v 7.55235429611454464 5.49196953168488824 85.72204894055347776
v 7.69107126289494488 4.54458472528747312 85.81881461309053808
v 7.81938107243300256 3.5972004294431028 86.12811137541022788
v 7.8713540213143336 2.64981599401550304 85.80453987758474448
v 7.97768724069584848 1.70243155034924464 85.7670809862846824
v 7.65598460790167048 5.49196956939209088 85.89788636793117856
v 7.72600238615162384 4.54458477662285712 86.11516501026012804
v 7.77740873327970656 3.5972004909598612 86.5282207856961776
v 7.91280613112801584 2.64981608044992664 86.31282750110941036
v 7.9984133254050072 1.7024316530260788 86.38618534185833656
# 42 vertices

vn 0.22998606876591692 -0.13818444487714344 0.96333356962844576
vn 0.22998606876591692 -0.13818444487714344 0.96333356962844576
vn 0.22998606876591692 -0.13818444487714344 0.96333356962844576
vn 0.22998606876591692 -0.13818444487714344 0.96333356962844576
vn -0.72388368140436592 -0.08059108637787282 0.68519879700446504
vn -0.72388368140436592 -0.08059108637787282 0.68519879700446504
vn -0.72388368140436592 -0.08059108637787282 0.68519879700446504
vn -0.72388368140436592 -0.08059108637787282 0.68519879700446504
vn -0.95172018847597872 0.11837516456538466 -0.2832243039346748
vn -0.95172018847597872 0.11837516456538466 -0.2832243039346748
vn -0.95172018847597872 0.11837516456538466 -0.2832243039346748
vn -0.95172018847597872 0.11837516456538466 -0.2832243039346748
vn -0.22470926462933228 0.2521883903569422 -0.94122622545485312
vn -0.22470926462933228 0.2521883903569422 -0.94122622545485312
vn -0.22470926462933228 0.2521883903569422 -0.94122622545485312
vn -0.22470926462933228 0.2521883903569422 -0.94122622545485312
vn 1.0775975277769229E-06 1.00000000000008482 -1.6292067961387602E-07
vn 1.0775975277769229E-06 1.00000000000008482 -1.6292067961387602E-07
vn 1.0775975277769229E-06 1.00000000000008482 -1.6292067961387602E-07
vn 1.0775975277769229E-06 1.00000000000008482 -1.6292067961387602E-07
vn 1.0775975277769229E-06 1.00000000000008482 -1.6292067961387602E-07
vn 1.0775975277769229E-06 1.00000000000008482 -1.6292067961387602E-07
vn 0.71187542138509616 0.19794717146702024 -0.67383268720268952
vn 0.71187542138509616 0.19794717146702024 -0.67383268720268952
vn 0.71187542138509616 0.19794717146702024 -0.67383268720268952
vn 0.71187542138509616 0.19794717146702024 -0.67383268720268952
vn 0.95845758898549808 0.00187572195784702 0.28522866933782564
vn 0.95845758898549808 0.00187572195784702 0.28522866933782564
vn 0.95845758898549808 0.00187572195784702 0.28522866933782564
vn 0.95845758898549808 0.00187572195784702 0.28522866933782564
vn -8.481809400418753E-08 -0.99999999999999808 1.6292067983592062E-07
vn -8.481809400418753E-08 -0.99999999999999808 1.6292067983592062E-07
vn -8.481809400418753E-08 -0.99999999999999808 1.6292067983592062E-07
vn -8.481809400418753E-08 -0.99999999999999808 1.6292067983592062E-07
vn -8.481809400418753E-08 -0.99999999999999808 1.6292067983592062E-07
vn -8.481809400418753E-08 -0.99999999999999808 1.6292067983592062E-07
vn 0.51064704970217424 0.10048600780838234 0.8538982108435832
vn 0.51064704970217424 0.10048600780838234 0.8538982108435832
vn 0.51064704970217424 0.10048600780838234 0.8538982108435832
vn 0.51064704970217424 0.10048600780838234 0.8538982108435832
vn 0.54421227299617 0.0996054008677263 0.83301363752742736
vn 0.54421227299617 0.0996054008677263 0.83301363752742736
vn 0.54421227299617 0.0996054008677263 0.83301363752742736
vn 0.54421227299617 0.0996054008677263 0.83301363752742736
vn 0.49785298819297472 -0.08124229518675252 0.86344779861357104
vn 0.49785298819297472 -0.08124229518675252 0.86344779861357104
vn 0.49785298819297472 -0.08124229518675252 0.86344779861357104
vn 0.49785298819297472 -0.08124229518675252 0.86344779861357104
vn 0.46123591038066512 0.34402620268002832 0.81786758063163776
vn 0.46123591038066512 0.34402620268002832 0.81786758063163776
vn 0.46123591038066512 0.34402620268002832 0.81786758063163776
vn 0.46123591038066512 0.34402620268002832 0.81786758063163776
vn 0.71463398752093224 0.15709985263917336 0.68162891689482848
vn 0.71463398752093224 0.15709985263917336 0.68162891689482848
vn 0.71463398752093224 0.15709985263917336 0.68162891689482848
vn 0.71463398752093224 0.15709985263917336 0.68162891689482848
vn 0.99482100323535088 0.10048598303421972 -0.01528427710614642
vn 0.99482100323535088 0.10048598303421972 -0.01528427710614642
vn 0.99482100323535088 0.10048598303421972 -0.01528427710614642
vn 0.99482100323535088 0.10048598303421972 -0.01528427710614642
vn 0.99351715170788288 0.09960528060371388 -0.05479467047789158
vn 0.99351715170788288 0.09960528060371388 -0.05479467047789158
vn 0.99351715170788288 0.09960528060371388 -0.05479467047789158
vn 0.99351715170788288 0.09960528060371388 -0.05479467047789158
vn 0.99516188239449936 0.09824768967464932 0.00056991836808661
vn 0.99516188239449936 0.09824768967464932 0.00056991836808661
vn 0.99516188239449936 0.09824768967464932 0.00056991836808661
vn 0.99516188239449936 0.09824768967464932 0.00056991836808661
vn 0.99511378144853424 0.0982205934550345 0.01006055699458403
vn 0.99511378144853424 0.0982205934550345 0.01006055699458403
vn 0.99511378144853424 0.0982205934550345 0.01006055699458403
vn 0.99511378144853424 0.0982205934550345 0.01006055699458403
vn 0.95787196836228608 0.0589351511967543 -0.28108332521263056
vn 0.95787196836228608 0.0589351511967543 -0.28108332521263056
vn 0.95787196836228608 0.0589351511967543 -0.28108332521263056
vn 0.95787196836228608 0.0589351511967543 -0.28108332521263056
vn 0.48417418316699968 0.10048586632963352 -0.86918230501792832
vn 0.48417418316699968 0.10048586632963352 -0.86918230501792832
vn 0.48417418316699968 0.10048586632963352 -0.86918230501792832
vn 0.48417418316699968 0.10048586632963352 -0.86918230501792832
vn 0.4493050786202004 0.09960514201550242 -0.88780839873888176
vn 0.4493050786202004 0.09960514201550242 -0.88780839873888176
vn 0.4493050786202004 0.09960514201550242 -0.88780839873888176
vn 0.4493050786202004 0.09960514201550242 -0.88780839873888176
vn 0.48207435642089072 0.2688094632500304 -0.833873971387856
vn 0.48207435642089072 0.2688094632500304 -0.833873971387856
vn 0.48207435642089072 0.2688094632500304 -0.833873971387856
vn 0.48207435642089072 0.2688094632500304 -0.833873971387856
vn 0.50135584168542288 -0.1696436008074873 -0.84844765283488112
vn 0.50135584168542288 -0.1696436008074873 -0.84844765283488112
vn 0.50135584168542288 -0.1696436008074873 -0.84844765283488112
vn 0.50135584168542288 -0.1696436008074873 -0.84844765283488112
vn 0.23590378568286836 -0.0120127115774089 -0.97170221609861552
vn 0.23590378568286836 -0.0120127115774089 -0.97170221609861552
vn 0.23590378568286836 -0.0120127115774089 -0.97170221609861552
vn 0.23590378568286836 -0.0120127115774089 -0.97170221609861552
vn -0.51064694806239032 0.10048569989329792 -0.8538983031906752
vn -0.51064694806239032 0.10048569989329792 -0.8538983031906752
vn -0.51064694806239032 0.10048569989329792 -0.8538983031906752
vn -0.51064694806239032 0.10048569989329792 -0.8538983031906752
vn -0.5442121115977592 0.09960495977851414 -0.833013789192204
vn -0.5442121115977592 0.09960495977851414 -0.833013789192204
vn -0.5442121115977592 0.09960495977851414 -0.833013789192204
vn -0.5442121115977592 0.09960495977851414 -0.833013789192204
vn -0.48110398020875064 0.26891592226316032 -0.83439986318606736
vn -0.48110398020875064 0.26891592226316032 -0.83439986318606736
vn -0.48110398020875064 0.26891592226316032 -0.83439986318606736
vn -0.48110398020875064 0.26891592226316032 -0.83439986318606736
vn -0.48384277503326208 -0.17264996795388742 -0.85795572567502128
vn -0.48384277503326208 -0.17264996795388742 -0.85795572567502128
vn -0.48384277503326208 -0.17264996795388742 -0.85795572567502128
vn -0.48384277503326208 -0.17264996795388742 -0.85795572567502128
vn -0.72351485639154416 0.01696985155486763 -0.69010013618379616
vn -0.72351485639154416 0.01696985155486763 -0.69010013618379616
vn -0.72351485639154416 0.01696985155486763 -0.69010013618379616
vn -0.72351485639154416 0.01696985155486763 -0.69010013618379616
vn -0.9948211400141576 0.10048585877787048 0.01528406182445273
vn -0.9948211400141576 0.10048585877787048 0.01528406182445273
vn -0.9948211400141576 0.10048585877787048 0.01528406182445273
vn -0.9948211400141576 0.10048585877787048 0.01528406182445273
vn -0.99351716912340816 0.09960510239427058 0.05479462684652966
vn -0.99351716912340816 0.09960510239427058 0.05479462684652966
vn -0.99351716912340816 0.09960510239427058 0.05479462684652966
vn -0.99351716912340816 0.09960510239427058 0.05479462684652966
vn -0.99513865378173952 0.09848252915510616 -0.00056993697353788
vn -0.99513865378173952 0.09848252915510616 -0.00056993697353788
vn -0.99513865378173952 0.09848252915510616 -0.00056993697353788
vn -0.99513865378173952 0.09848252915510616 -0.00056993697353788
vn -0.99570632785350128 0.09201877636140334 -0.01006666766227855
vn -0.99570632785350128 0.09201877636140334 -0.01006666766227855
vn -0.99570632785350128 0.09201877636140334 -0.01006666766227855
vn -0.99570632785350128 0.09201877636140334 -0.01006666766227855
vn -0.95303798737862432 0.11621676335286546 0.2796647061311074
vn -0.95303798737862432 0.11621676335286546 0.2796647061311074
vn -0.95303798737862432 0.11621676335286546 0.2796647061311074
vn -0.95303798737862432 0.11621676335286546 0.2796647061311074
vn -0.484174021922586 0.1004860127354349 0.86918239148474272
vn -0.484174021922586 0.1004860127354349 0.86918239148474272
vn -0.484174021922586 0.1004860127354349 0.86918239148474272
vn -0.484174021922586 0.1004860127354349 0.86918239148474272
vn -0.44930491722179432 0.0996052707848415 0.88780848549267536
vn -0.44930491722179432 0.0996052707848415 0.88780848549267536
vn -0.44930491722179432 0.0996052707848415 0.88780848549267536
vn -0.44930491722179432 0.0996052707848415 0.88780848549267536
vn -0.4988461959966448 -0.0811243652159227 0.86288548837553248
vn -0.4988461959966448 -0.0811243652159227 0.86288548837553248
vn -0.4988461959966448 -0.0811243652159227 0.86288548837553248
vn -0.4988461959966448 -0.0811243652159227 0.86288548837553248
vn -0.478160768792902 0.34142008486334048 0.8091937343345656
vn -0.478160768792902 0.34142008486334048 0.8091937343345656
vn -0.478160768792902 0.34142008486334048 0.8091937343345656
vn -0.478160768792902 0.34142008486334048 0.8091937343345656
vn -0.2318564665960864 0.18482123436762044 0.95503076880085664
vn -0.2318564665960864 0.18482123436762044 0.95503076880085664
vn -0.2318564665960864 0.18482123436762044 0.95503076880085664
vn -0.2318564665960864 0.18482123436762044 0.95503076880085664
# 156 vertex normals

vt 0.95784610509872432 0.3700000047683716 0
vt 0.8333333134651184 0.5 0
vt -8.940696716308594E-08 0.6666666865348816 0
vt 0.6666666269302368 0.8333333134651184 0
vt 1 0.5 0
vt 0.33333328366279604 0.8333333134651184 0
vt 0.4999999105930328 0.66666656732559208 0
vt 0.16666655242443084 0.6666666269302368 0
vt 1 1 0
vt 0.16666658222675324 1 0
vt 0.04215389490127563 0.1300000250339508 0
vt 0.8333332538604736 0.7499999403953552 0
vt 0.66666656732559208 0.5833332538604736 0
vt 1 0.6666666865348816 0
vt 0.33333328366279604 0.5833333134651184 0
vt 0.4578461050987244 0.12999999523162842 0
vt -8.940696716308594E-08 0.5833333134651184 0
vt 0.6666666269302368 0.9166666269302368 0
vt 0.33333328366279604 0.9166666269302368 0
vt 0.25 0.4900000095367432 0
vt 0.5421538949012756 0.1300000250339508 0
vt 0.33333325386047364 0.5 0
vt 0.8333333730697632 0.8333333134651184 0
vt 0.6666666269302368 1 0
vt 0.5 0.7500001192092896 0
vt 0.16666656732559204 0.7499999403953552 0
vt 0.95784610509872432 0.12999999523162842 0
vt 0.6666666269302368 0.5 0
vt -8.940696716308594E-08 1 0
vt -8.940696716308594E-08 0.8333333134651184 0
vt 0.66666656732559208 0.66666656732559208 0
vt 1 0.75 0
vt 0.33333325386047364 0.66666656732559208 0
vt 0.75 0.4900000095367432 0
vt -8.940696716308594E-08 0.5 0
vt 0.04215389490127563 0.3699999749660492 0
vt 0.8333332538604736 0.5833333730697632 0
vt 0.4999999403953552 0.8333333134651184 0
vt 0.16666658222675324 0.8333333134651184 0
vt 0.33333325386047364 1 0
vt 0.2499999850988388 0.01000000536441803 0
vt 1 0.9166666269302368 0
vt 0.8333332538604736 0.9166666269302368 0
vt -8.940696716308594E-08 0.75 0
vt 0.6666666269302368 0.75 0
vt 1 0.5833333134651184 0
vt 0.3333333134651184 0.7500001192092896 0
vt 1 0.8333333134651184 0
vt 0.4578461050987244 0.3700000047683716 0
vt 0.5421538949012756 0.3699999749660492 0
vt 0.16666658222675324 0.5 0
vt 0.8333333730697632 0.6666666865348816 0
vt 0.4999999403953552 1 0
vt 0.4999999403953552 0.5833332538604736 0
vt 0.16666656732559204 0.5833333134651184 0
vt 0.75 0.01000000536441803 0
vt 0.4999999403953552 0.5 0
vt -8.940696716308594E-08 0.9166666269302368 0
vt 0.8333333134651184 1 0
vt 0.4999999403953552 0.9166666269302368 0
vt 0.16666656732559204 0.916666567325592 0
# 61 texture coords

g standard tree trunk.001
usemtl trunk dark
s 2
f 29/64/61 14/31/62 16/81/63 30/65/64
f 30/65/65 16/81/66 18/46/67 35/40/68
f 35/40/69 18/46/70 20/75/71 40/82/72
f 40/82/73 20/75/74 22/62/75 45/41/76
f 16/71/77 14/42/78 24/58/79 22/33/80 20/63/81 18/38/82
f 45/41/83 22/62/84 24/32/85 50/83/86
f 50/83/87 24/32/88 14/51/89 29/80/90
f 13/56/91 15/23/92 17/49/93 19/78/94 21/43/95 23/72/96
f 23/73/97 54/77/98 25/39/99 13/57/100
f 54/77/101 53/30/102 26/25/103 25/39/104
f 53/30/105 52/48/106 27/66/107 26/25/108
f 52/48/109 51/61/110 28/52/111 27/66/112
f 51/61/113 50/83/114 29/80/115 28/52/116
f 21/44/117 49/37/118 54/77/119 23/73/120
f 49/37/121 48/55/122 53/30/123 54/77/124
f 48/55/125 47/69/126 52/48/127 53/30/128
f 47/69/129 46/28/130 51/61/131 52/48/132
f 46/28/133 45/41/134 50/83/135 51/61/136
f 19/79/137 44/76/138 49/37/139 21/44/140
f 44/76/141 43/29/142 48/55/143 49/37/144
f 43/29/145 42/47/146 47/69/147 48/55/148
f 42/47/149 41/60/150 46/28/151 47/69/152
f 41/60/153 40/82/154 45/41/155 46/28/156
f 17/50/157 39/35/158 44/76/159 19/79/160
f 39/35/161 38/53/162 43/29/163 44/76/164
f 38/53/165 37/67/166 42/47/167 43/29/168
f 37/67/169 36/26/170 41/60/171 42/47/172
f 36/26/173 35/40/174 40/82/175 41/60/176
f 15/24/177 34/59/178 39/35/179 17/50/180
f 34/59/181 33/74/182 38/53/183 39/35/184
f 33/74/185 32/34/186 37/67/187 38/53/188
f 32/34/189 31/45/190 36/26/191 37/67/192
f 31/45/193 30/65/194 35/40/195 36/26/196
f 13/27/197 25/68/198 34/59/199 15/24/200
f 25/68/201 26/36/202 33/74/203 34/59/204
f 26/36/205 27/54/206 32/34/207 33/74/208
f 27/54/209 28/70/210 31/45/211 32/34/212
f 28/70/213 29/64/214 30/65/215 31/45/216
#38 polygons

