# Alias OBJ Model File
# Exported from SketchUp, (c) 2000-2012 Trimble Navigation Limited
# File units = millimeters

mtllib Wooden Table U13.mtl

g Mesh1 Model

usemtl M_006aniegre2
v 100 690 -800
vt 0.16203 1.85527
vn 1.40367e-11 -1 -5.6637e-11
v 300 690 -600
vt -0.140817 1.55242
v 100 690 -100
vt 0.16203 0.795304
f 1/1/1 2/2/1 3/3/1

v 1700 690 -800
vt -2.26074 1.85527
f 2/2/1 1/1/1 4/4/1

vn -1.40367e-11 1 5.6637e-11
f 3/3/2 2/2/2 1/1/2

v 300 690 -300
vt -0.140817 1.09815
f 5/5/1 3/3/1 2/2/1

v 1700 690 -100
vt -2.26074 0.795304
f 3/3/1 5/5/1 6/6/1

f 6/6/2 5/5/2 3/3/2

v 900 690 -300
vt -1.04936 1.09815
f 6/6/1 5/5/1 7/7/1

f 7/7/2 5/5/2 6/6/2

vt 0.140817 1.25425
vn -2.92946e-12 0.21243 0.977176
v 1200 1.47343e-08 -150
vt 1.50363 0.185029
vt 1.04936 1.25425
f 5/8/3 8/9/3 7/10/3

v 150 0 -150
vt -0.0863184 0.185029
f 8/9/3 5/8/3 9/11/3

vn 2.92946e-12 -0.21243 -0.977176
f 9/11/4 5/8/4 8/9/4

vt -1.09815 1.05089
vn -0.977176 0.21243 1.20824e-11
v 150 3.3982e-08 -750
vt -1.77956 -0.0183366
vt -0.871015 -0.0183366
f 5/12/5 10/13/5 9/14/5

vt -1.55242 1.05089
f 10/13/5 5/12/5 2/15/5

vn 0.977176 -0.21243 -1.20824e-11
f 9/14/6 10/13/6 5/12/6

v 1200 4.8722e-08 -750
vt -1.50363 1.77956
vn 1.40354e-11 -1 -5.66414e-11
vt 0.0863184 0.871015
vt 0.0863184 1.77956
f 11/16/7 9/17/7 10/18/7

vt -1.50363 0.871015
f 9/17/7 11/16/7 8/19/7

vn -1.40354e-11 1 5.66414e-11
f 10/18/8 9/17/8 11/16/8

f 8/19/8 11/16/8 9/17/8

vt 1.77956 -0.599535
vn 0.91707 0.398726 2.2538e-11
vt 1.09815 0.539768
vt 0.871015 -0.599535
f 11/20/9 7/21/9 8/22/9

v 900 690 -600
vt 1.55242 0.539768
f 7/21/9 11/20/9 12/23/9

vn -0.91707 -0.398726 -2.2538e-11
f 8/22/10 7/21/10 11/20/10

f 7/10/4 8/9/4 5/8/4

f 12/23/10 11/20/10 7/21/10

vt -1.50363 -0.37803
vn -3.03368e-12 0.21243 -0.977176
vt -0.140817 0.691195
vt -1.04936 0.691195
f 11/24/11 2/25/11 12/26/11

vt 0.0863184 -0.37803
f 2/25/11 11/24/11 10/27/11

vn 3.03368e-12 -0.21243 0.977176
f 10/27/12 11/24/12 2/25/12

f 12/26/12 2/25/12 11/24/12

vt -1.04936 1.55242
f 2/2/1 4/4/1 12/28/1

f 4/4/2 1/1/2 2/2/2

vt 0.16203 2.11061
vn 1.30157e-11 -0.928477 -0.371391
v 1800 730 -900
vt -2.41217 2.2737
vt -2.26074 2.11061
f 1/29/13 13/30/13 4/31/13

v 2.80824e-10 730 -900
vt 0.313454 2.2737
f 13/30/13 1/29/13 14/32/13

vn -1.30157e-11 0.928477 0.371391
f 14/32/14 1/29/14 13/30/14

vt -1.85527 0.538478
vn -0.371391 -0.928477 -5.25609e-11
v 3.28109e-10 730 -1.13286e-09
vt -0.64388 0.701566
vt -2.00669 0.701566
f 1/33/15 15/34/15 14/35/15

vt -0.795304 0.538478
f 15/34/15 1/33/15 3/36/15

vn 0.371391 0.928477 5.25609e-11
f 14/35/16 15/34/16 1/33/16

vt -0.64388 1.10539
vn -1 -1.40394e-11 5.26523e-14
v 0 750 -900
vt -2.00669 1.13568
vt -2.00669 1.10539
f 15/37/17 16/38/17 14/39/17

v 4.72852e-11 750 -0
vt -0.64388 1.13568
f 16/38/17 15/37/17 17/40/17

vn 1 1.40394e-11 -5.26523e-14
f 17/40/18 15/37/18 16/38/18

v 1700 730 -1.22238e-09
vt 2.26074 1.10539
vn 5.2777e-14 -5.66534e-11 1
vt -0.313454 1.13568
vt -0.313454 1.10539
f 18/41/19 17/42/19 15/43/19

v 1800 730 -1.22833e-09
vt 2.41217 1.10539
f 17/42/19 18/41/19 19/44/19

vn -5.2777e-14 5.66534e-11 -1
f 15/43/20 17/42/20 18/41/20

f 19/44/20 18/41/20 17/42/20

vt 2.26074 -0.187296
vn 1.30493e-11 -0.928477 0.371391
vt 2.26074 -0.350384
vt 2.41217 -0.187296
f 18/45/21 6/46/21 19/47/21

vt -0.16203 -0.350384
f 18/45/21 3/48/21 6/46/21

vt -0.313454 -0.187296
f 3/48/21 18/45/21 15/49/21

vn -1.30493e-11 0.928477 -0.371391
f 15/49/22 18/45/22 3/48/22

f 6/46/22 3/48/22 18/45/22

f 19/47/22 6/46/22 18/45/22

vt 0.795304 2.48708
vn 0.371391 -0.928477 -5.26113e-11
vt 2.00669 2.65017
vt 0.64388 2.65017
f 6/50/23 13/51/23 19/52/23

vt 1.85527 2.48708
f 13/51/23 6/50/23 4/53/23

vn -0.371391 0.928477 5.26113e-11
f 4/53/24 6/50/24 13/51/24

f 6/6/1 7/7/1 4/4/1

f 4/4/2 7/7/2 6/6/2

f 12/28/1 4/4/1 7/7/1

f 12/28/2 4/4/2 2/2/2

f 7/7/2 4/4/2 12/28/2

f 19/52/24 13/51/24 6/50/24

v 1800 750 -900
vt 2.00669 1.13568
vn 1 1.40574e-11 -5.26523e-14
vt 0.64388 1.10539
vt 2.00669 1.10539
f 20/54/25 19/55/25 13/56/25

v 1800 750 -9.47509e-11
vt 0.64388 1.13568
f 19/55/25 20/54/25 21/57/25

vn -1 -1.40574e-11 5.26523e-14
f 21/57/26 20/54/26 19/55/26

vt 2.41217 2.00669
vn -1.40364e-11 1 5.6637e-11
vt -0.313454 0.64388
vt 2.41217 0.64388
f 20/58/27 17/59/27 21/60/27

vt -0.313454 2.00669
f 17/59/27 20/58/27 16/61/27

vn 1.40364e-11 -1 -5.6637e-11
f 16/61/28 20/58/28 17/59/28

vt -2.41217 1.10539
vn -5.26523e-14 5.67152e-11 -1
vt 0.313454 1.13568
vt -2.41217 1.13568
f 13/62/29 16/63/29 20/64/29

vt 0.313454 1.10539
f 16/63/29 13/62/29 14/65/29

vn 5.26523e-14 -5.67152e-11 1
f 14/65/30 13/62/30 16/63/30

f 20/64/30 16/63/30 13/62/30

f 13/56/26 19/55/26 20/54/26

f 14/39/18 16/38/18 15/37/18

f 21/60/28 17/59/28 20/58/28

vt 2.41217 1.13568
f 17/42/19 19/44/19 21/66/19

f 21/66/20 19/44/20 17/42/20

f 4/31/14 13/30/14 1/29/14

f 3/36/16 1/33/16 15/34/16

f 2/15/6 5/12/6 10/13/6

f 2/2/2 3/3/2 5/5/2

g Mesh2 Model

l 1 3

l 4 1

l 6 4

l 3 6

l 15 3

l 14 15

l 14 1

l 13 14

l 19 13

l 6 19

l 19 21

l 18 19

l 15 18

l 15 17

l 21 17

l 20 21

l 16 20

l 17 16

l 14 16

l 13 20

l 13 4

g Mesh3 Model

l 2 12

l 5 2

l 7 5

l 12 7

l 12 11

l 11 8

l 10 11

l 2 10

l 9 10

l 8 9

l 7 8

l 5 9

